<svg width="1200" height="630" viewBox="0 0 1200 630" xmlns="http://www.w3.org/2000/svg" role="img" aria-label="Detector de Stress cover">
  <defs>
    <linearGradient id="bg" x1="0" y1="0" x2="1" y2="1">
      <stop offset="0%" stop-color="#0f172a" />
      <stop offset="100%" stop-color="#0b1020" />
    </linearGradient>
    <linearGradient id="accent" x1="0" y1="0" x2="1" y2="0">
      <stop offset="0%" stop-color="#f97316" />
      <stop offset="100%" stop-color="#ec4899" />
    </linearGradient>
    <radialGradient id="glow" cx="75%" cy="22%" r="65%">
      <stop offset="0%" stop-color="#ec4899" stop-opacity="0.32" />
      <stop offset="100%" stop-color="#ec4899" stop-opacity="0" />
    </radialGradient>
  </defs>

  <rect width="1200" height="630" fill="url(#bg)" />
  <rect width="1200" height="630" fill="url(#glow)" />

  <g opacity="0.14" stroke="#94a3b8" stroke-width="1" fill="none">
    <path d="M120 160H1080" />
    <path d="M120 240H1080" />
    <path d="M120 320H1080" />
    <path d="M120 400H1080" />
    <path d="M120 480H1080" />
    <path d="M240 110V520" />
    <path d="M520 110V520" />
    <path d="M800 110V520" />
    <path d="M1040 110V520" />
  </g>

  <g stroke="url(#accent)" stroke-width="6" fill="none" stroke-linecap="round" stroke-linejoin="round">
    <path d="M180 430 C260 360 320 360 380 410 S520 500 620 360 S760 190 900 260 S1040 330 1040 330" />
  </g>

  <g stroke="#1f2937" stroke-width="2" fill="none" opacity="0.55">
    <path d="M180 446 C260 374 320 380 380 424 S520 512 620 376 S760 214 900 282 S1040 350 1040 350" />
  </g>

  <rect x="100" y="120" width="1000" height="410" rx="32" fill="#0b1220" fill-opacity="0.52" stroke="#27303f" />

  <text x="150" y="215" fill="#f8fafc" font-size="56" font-family="Roboto, Arial, sans-serif" font-weight="700">
    Detector de Stress
  </text>
  <text x="150" y="260" fill="#cbd5e1" font-size="24" font-family="Roboto, Arial, sans-serif">
    Score fisiológico em tempo real usando apenas webcam
  </text>

  <rect x="150" y="285" width="360" height="6" rx="3" fill="url(#accent)" />

  <text x="150" y="330" fill="#e2e8f0" font-size="18" font-family="Roboto, Arial, sans-serif">
    MediaPipe • OpenCV • WebSockets/REST • Streamlit
  </text>

  <rect x="150" y="360" width="320" height="120" rx="18" fill="#101827" stroke="#303a4b" />
  <text x="170" y="395" fill="#e2e8f0" font-size="18" font-family="Roboto, Arial, sans-serif">
    Pipeline em loop contínuo
  </text>
  <text x="170" y="425" fill="#94a3b8" font-size="14" font-family="Roboto, Arial, sans-serif">
    ▸ Equalização de luz
  </text>
  <text x="170" y="450" fill="#94a3b8" font-size="14" font-family="Roboto, Arial, sans-serif">
    ▸ EAR, tensão facial, pupila
  </text>
  <text x="170" y="475" fill="#94a3b8" font-size="14" font-family="Roboto, Arial, sans-serif">
    ▸ HUD + broadcast 5Hz
  </text>

  <rect x="540" y="360" width="380" height="120" rx="18" fill="#111827" stroke="#303a4b" />
  <text x="560" y="395" fill="#e2e8f0" font-size="18" font-family="Roboto, Arial, sans-serif">
    Outputs
  </text>
  <text x="560" y="425" fill="#94a3b8" font-size="14" font-family="Roboto, Arial, sans-serif">
    ▸ HUD OpenCV com mensagens interpretáveis
  </text>
  <text x="560" y="450" fill="#94a3b8" font-size="14" font-family="Roboto, Arial, sans-serif">
    ▸ API REST /score + WebSocket (5 Hz)
  </text>
  <text x="560" y="475" fill="#94a3b8" font-size="14" font-family="Roboto, Arial, sans-serif">
    ▸ Dashboard Streamlit para acompanhamento
  </text>
</svg>
