<svg width="1200" height="630" viewBox="0 0 1200 630" xmlns="http://www.w3.org/2000/svg" role="img" aria-label="Fruit Ninja cover">
  <defs>
    <linearGradient id="bg" x1="0" y1="0" x2="1" y2="1">
      <stop offset="0%" stop-color="#0b1020" />
      <stop offset="100%" stop-color="#102a1f" />
    </linearGradient>
    <linearGradient id="accent" x1="0" y1="0" x2="1" y2="0">
      <stop offset="0%" stop-color="#22c55e" />
      <stop offset="100%" stop-color="#f97316" />
    </linearGradient>
    <radialGradient id="glow" cx="78%" cy="18%" r="65%">
      <stop offset="0%" stop-color="#22c55e" stop-opacity="0.28" />
      <stop offset="100%" stop-color="#22c55e" stop-opacity="0" />
    </radialGradient>
  </defs>

  <rect width="1200" height="630" fill="url(#bg)" />
  <rect width="1200" height="630" fill="url(#glow)" />

  <g opacity="0.14" stroke="#1f2f2b" stroke-width="1">
    <path d="M120 150H1080" />
    <path d="M120 230H1080" />
    <path d="M120 310H1080" />
    <path d="M120 390H1080" />
    <path d="M120 470H1080" />
    <path d="M220 120V520" />
    <path d="M520 120V520" />
    <path d="M820 120V520" />
    <path d="M1080 120V520" />
  </g>

  <rect x="100" y="120" width="1000" height="410" rx="30" fill="#0e1a22" fill-opacity="0.65" stroke="#1a2f2b" />

  <g opacity="0.95">
    <circle cx="900" cy="195" r="44" fill="#111827" stroke="#22c55e" stroke-width="3" />
    <circle cx="980" cy="230" r="28" fill="#111827" stroke="#f97316" stroke-width="3" />
    <circle cx="845" cy="245" r="22" fill="#111827" stroke="#34d399" stroke-width="3" />
    <circle cx="940" cy="280" r="18" fill="#111827" stroke="#fb923c" stroke-width="3" />
  </g>

  <g stroke="url(#accent)" stroke-width="6" fill="none" stroke-linecap="round" stroke-linejoin="round">
    <path d="M190 435 C320 330 450 350 560 300 C700 240 840 270 980 235 C1040 220 1080 220 1100 210" />
  </g>
  <g stroke="#111827" stroke-width="2" fill="none" opacity="0.55">
    <path d="M190 449 C320 344 450 364 560 314 C700 254 840 284 980 249 C1040 234 1080 234 1100 224" />
  </g>

  <text x="150" y="210" fill="#e2e8f0" font-size="56" font-family="Segoe UI, Inter, Arial, sans-serif" font-weight="700">
    Fruit Ninja
  </text>
  <text x="150" y="252" fill="#cbd5e1" font-size="24" font-family="Segoe UI, Inter, Arial, sans-serif">
    Corte por gestos com rastreamento de mão em tempo real
  </text>
  <rect x="150" y="270" width="360" height="6" rx="3" fill="url(#accent)" />
  <text x="150" y="305" fill="#94a3b8" font-size="18" font-family="Segoe UI, Inter, Arial, sans-serif">
    React • TypeScript • Canvas • MediaPipe • Vite
  </text>

  <g transform="translate(150 340)">
    <rect width="320" height="130" rx="18" fill="#0f1b24" stroke="#223432" />
    <text x="20" y="38" fill="#e2e8f0" font-size="20" font-family="Segoe UI, Inter, Arial, sans-serif" font-weight="600">Jogabilidade</text>
    <text x="20" y="70" fill="#9fb1c6" font-size="15" font-family="Segoe UI, Inter, Arial, sans-serif">Cortes rápidos com indicador</text>
    <text x="20" y="95" fill="#9fb1c6" font-size="15" font-family="Segoe UI, Inter, Arial, sans-serif">Bombas e combos em foco</text>
    <text x="20" y="120" fill="#9fb1c6" font-size="15" font-family="Segoe UI, Inter, Arial, sans-serif">Feedback do sensei</text>
  </g>

  <g transform="translate(520 340)">
    <rect width="360" height="130" rx="18" fill="#0f1b24" stroke="#223432" />
    <text x="20" y="38" fill="#e2e8f0" font-size="20" font-family="Segoe UI, Inter, Arial, sans-serif" font-weight="600">Performance</text>
    <text x="20" y="70" fill="#9fb1c6" font-size="15" font-family="Segoe UI, Inter, Arial, sans-serif">Delta time consistente</text>
    <text x="20" y="95" fill="#9fb1c6" font-size="15" font-family="Segoe UI, Inter, Arial, sans-serif">Loop otimizado</text>
    <text x="20" y="120" fill="#9fb1c6" font-size="15" font-family="Segoe UI, Inter, Arial, sans-serif">Partículas sob controle</text>
  </g>
</svg>
