<svg width="1200" height="630" viewBox="0 0 1200 630" xmlns="http://www.w3.org/2000/svg" role="img" aria-label="Slingshot cover">
  <defs>
    <linearGradient id="bg" x1="0" y1="0" x2="1" y2="1">
      <stop offset="0%" stop-color="#0b1020" />
      <stop offset="100%" stop-color="#0f1a2f" />
    </linearGradient>
    <linearGradient id="accent" x1="0" y1="0" x2="1" y2="0">
      <stop offset="0%" stop-color="#22d3ee" />
      <stop offset="100%" stop-color="#a855f7" />
    </linearGradient>
    <radialGradient id="glow" cx="78%" cy="18%" r="65%">
      <stop offset="0%" stop-color="#22d3ee" stop-opacity="0.32" />
      <stop offset="100%" stop-color="#22d3ee" stop-opacity="0" />
    </radialGradient>
  </defs>

  <rect width="1200" height="630" fill="url(#bg)" />
  <rect width="1200" height="630" fill="url(#glow)" />

  <g opacity="0.14" stroke="#1f2a44" stroke-width="1">
    <path d="M120 150H1080" />
    <path d="M120 230H1080" />
    <path d="M120 310H1080" />
    <path d="M120 390H1080" />
    <path d="M120 470H1080" />
    <path d="M220 120V520" />
    <path d="M520 120V520" />
    <path d="M820 120V520" />
    <path d="M1080 120V520" />
  </g>

  <rect x="100" y="120" width="1000" height="410" rx="30" fill="#0b1424" fill-opacity="0.65" stroke="#1b2a44" />

  <g opacity="0.9">
    <circle cx="900" cy="195" r="46" fill="#111827" stroke="#38bdf8" stroke-width="3" />
    <circle cx="980" cy="225" r="28" fill="#0f172a" stroke="#a855f7" stroke-width="3" />
    <circle cx="845" cy="245" r="22" fill="#0f172a" stroke="#22d3ee" stroke-width="3" />
    <circle cx="940" cy="275" r="18" fill="#0f172a" stroke="#c084fc" stroke-width="3" />
  </g>

  <g stroke="url(#accent)" stroke-width="6" fill="none" stroke-linecap="round" stroke-linejoin="round">
    <path d="M190 430 C320 340 430 360 520 320 C640 260 760 290 900 250 C980 230 1040 240 1070 230" />
  </g>
  <g stroke="#111827" stroke-width="2" fill="none" opacity="0.55">
    <path d="M190 444 C320 352 430 372 520 334 C640 274 760 304 900 264 C980 244 1040 254 1070 244" />
  </g>

  <text x="150" y="210" fill="#e2e8f0" font-size="56" font-family="Segoe UI, Inter, Arial, sans-serif" font-weight="700">
    Slingshot
  </text>
  <text x="150" y="252" fill="#cbd5e1" font-size="24" font-family="Segoe UI, Inter, Arial, sans-serif">
    Bubble shooter com mira por toque e dicas táticas
  </text>
  <rect x="150" y="270" width="360" height="6" rx="3" fill="url(#accent)" />
  <text x="150" y="305" fill="#94a3b8" font-size="18" font-family="Segoe UI, Inter, Arial, sans-serif">
    JavaScript • HTML5 Canvas • CSS • Hammer.js
  </text>

  <g transform="translate(150 340)">
    <rect width="320" height="130" rx="18" fill="#0f1b31" stroke="#22304b" />
    <text x="20" y="38" fill="#e2e8f0" font-size="20" font-family="Segoe UI, Inter, Arial, sans-serif" font-weight="600">Jogabilidade</text>
    <text x="20" y="70" fill="#9fb1c6" font-size="15" font-family="Segoe UI, Inter, Arial, sans-serif">Mira por toque ou mouse</text>
    <text x="20" y="95" fill="#9fb1c6" font-size="15" font-family="Segoe UI, Inter, Arial, sans-serif">Ricochete nas laterais</text>
    <text x="20" y="120" fill="#9fb1c6" font-size="15" font-family="Segoe UI, Inter, Arial, sans-serif">Controle responsivo</text>
  </g>

  <g transform="translate(520 340)">
    <rect width="360" height="130" rx="18" fill="#0f1b31" stroke="#22304b" />
    <text x="20" y="38" fill="#e2e8f0" font-size="20" font-family="Segoe UI, Inter, Arial, sans-serif" font-weight="600">Estratégia</text>
    <text x="20" y="70" fill="#9fb1c6" font-size="15" font-family="Segoe UI, Inter, Arial, sans-serif">Dicas táticas locais</text>
    <text x="20" y="95" fill="#9fb1c6" font-size="15" font-family="Segoe UI, Inter, Arial, sans-serif">Clusters hexagonais</text>
    <text x="20" y="120" fill="#9fb1c6" font-size="15" font-family="Segoe UI, Inter, Arial, sans-serif">Recorde no navegador</text>
  </g>
</svg>
