<svg width="1200" height="630" viewBox="0 0 1200 630" xmlns="http://www.w3.org/2000/svg" role="img" aria-label="Sistema de Analise de Emocoes com IA cover">
  <defs>
    <linearGradient id="bg" x1="0" y1="0" x2="1" y2="1">
      <stop offset="0%" stop-color="#0f172a" />
      <stop offset="100%" stop-color="#1f2937" />
    </linearGradient>
    <linearGradient id="accent" x1="0" y1="0" x2="1" y2="0">
      <stop offset="0%" stop-color="#22d3ee" />
      <stop offset="100%" stop-color="#38bdf8" />
    </linearGradient>
    <radialGradient id="glow" cx="75%" cy="15%" r="60%">
      <stop offset="0%" stop-color="#38bdf8" stop-opacity="0.35" />
      <stop offset="100%" stop-color="#38bdf8" stop-opacity="0" />
    </radialGradient>
  </defs>

  <rect width="1200" height="630" fill="url(#bg)" />
  <rect width="1200" height="630" fill="url(#glow)" />

  <g opacity="0.25" stroke="#94a3b8" stroke-width="1" fill="none">
    <circle cx="140" cy="130" r="70" />
    <circle cx="1040" cy="520" r="90" />
    <circle cx="980" cy="140" r="40" />
    <path d="M260 120C330 160 360 220 340 300" />
    <path d="M880 460C820 420 800 360 820 290" />
  </g>

  <rect x="70" y="70" width="1060" height="490" rx="32" fill="#0f172a" fill-opacity="0.35" stroke="#334155" />

  <text x="140" y="210" fill="#e2e8f0" font-size="54" font-family="Roboto, Arial, sans-serif" font-weight="700">
    Sistema de Analise de Emocoes com IA
  </text>
  <text x="140" y="258" fill="#94a3b8" font-size="24" font-family="Roboto, Arial, sans-serif">
    Data Science + Full Stack
  </text>

  <rect x="140" y="290" width="280" height="6" fill="url(#accent)" rx="3" />

  <text x="140" y="340" fill="#cbd5f5" font-size="20" font-family="Roboto, Arial, sans-serif">
    Python | Machine Learning | REST APIs
  </text>

  <g transform="translate(140 380)">
    <rect width="300" height="140" rx="16" fill="#1e293b" fill-opacity="0.6" stroke="#334155" />
    <text x="24" y="46" fill="#e2e8f0" font-size="20" font-family="Roboto, Arial, sans-serif" font-weight="600">
      Emotion Detection
    </text>
    <text x="24" y="78" fill="#94a3b8" font-size="16" font-family="Roboto, Arial, sans-serif">
      Real-time inference
    </text>
    <text x="24" y="106" fill="#94a3b8" font-size="16" font-family="Roboto, Arial, sans-serif">
      Image + video
    </text>
  </g>

  <g transform="translate(470 380)">
    <rect width="300" height="140" rx="16" fill="#1e293b" fill-opacity="0.6" stroke="#334155" />
    <text x="24" y="46" fill="#e2e8f0" font-size="20" font-family="Roboto, Arial, sans-serif" font-weight="600">
      Data Pipeline
    </text>
    <text x="24" y="78" fill="#94a3b8" font-size="16" font-family="Roboto, Arial, sans-serif">
      ETL + quality
    </text>
    <text x="24" y="106" fill="#94a3b8" font-size="16" font-family="Roboto, Arial, sans-serif">
      Metrics ready
    </text>
  </g>

  <g transform="translate(800 380)">
    <rect width="300" height="140" rx="16" fill="#1e293b" fill-opacity="0.6" stroke="#334155" />
    <text x="24" y="46" fill="#e2e8f0" font-size="20" font-family="Roboto, Arial, sans-serif" font-weight="600">
      Analytics UI
    </text>
    <text x="24" y="78" fill="#94a3b8" font-size="16" font-family="Roboto, Arial, sans-serif">
      Dashboards + KPIs
    </text>
    <text x="24" y="106" fill="#94a3b8" font-size="16" font-family="Roboto, Arial, sans-serif">
      Decision support
    </text>
  </g>
</svg>
