<svg width="1200" height="630" viewBox="0 0 1200 630" xmlns="http://www.w3.org/2000/svg" role="img" aria-label="Dashboard analitico de emocoes">
  <defs>
    <linearGradient id="bg" x1="0" y1="0" x2="1" y2="1">
      <stop offset="0%" stop-color="#0f172a" />
      <stop offset="100%" stop-color="#1f2937" />
    </linearGradient>
    <linearGradient id="accent" x1="0" y1="0" x2="1" y2="0">
      <stop offset="0%" stop-color="#22d3ee" />
      <stop offset="100%" stop-color="#38bdf8" />
    </linearGradient>
    <radialGradient id="glow" cx="25%" cy="15%" r="60%">
      <stop offset="0%" stop-color="#38bdf8" stop-opacity="0.3" />
      <stop offset="100%" stop-color="#38bdf8" stop-opacity="0" />
    </radialGradient>
  </defs>

  <rect width="1200" height="630" fill="url(#bg)" />
  <rect width="1200" height="630" fill="url(#glow)" />

  <g opacity="0.25" stroke="#94a3b8" stroke-width="1" fill="none">
    <circle cx="180" cy="520" r="90" />
    <circle cx="980" cy="140" r="40" />
    <path d="M260 140C320 190 340 250 320 320" />
    <path d="M900 440C840 400 820 340 840 270" />
  </g>

  <rect x="70" y="70" width="1060" height="490" rx="32" fill="#0f172a" fill-opacity="0.35" stroke="#334155" />

  <text x="140" y="210" fill="#e2e8f0" font-size="54" font-family="Roboto, Arial, sans-serif" font-weight="700">
    Dashboard Analitico de Emocoes
  </text>
  <text x="140" y="258" fill="#94a3b8" font-size="24" font-family="Roboto, Arial, sans-serif">
    Visualizacao e KPIs
  </text>

  <rect x="140" y="290" width="280" height="6" fill="url(#accent)" rx="3" />

  <text x="140" y="340" fill="#cbd5f5" font-size="20" font-family="Roboto, Arial, sans-serif">
    Dash | Power BI | DAX
  </text>

  <g transform="translate(140 380)">
    <rect width="300" height="140" rx="16" fill="#1e293b" fill-opacity="0.6" stroke="#334155" />
    <text x="24" y="46" fill="#e2e8f0" font-size="20" font-family="Roboto, Arial, sans-serif" font-weight="600">
      Engagement Trends
    </text>
    <text x="24" y="78" fill="#94a3b8" font-size="16" font-family="Roboto, Arial, sans-serif">
      Time series
    </text>
    <text x="24" y="106" fill="#94a3b8" font-size="16" font-family="Roboto, Arial, sans-serif">
      Sentiment mix
    </text>
  </g>

  <g transform="translate(470 380)">
    <rect width="300" height="140" rx="16" fill="#1e293b" fill-opacity="0.6" stroke="#334155" />
    <text x="24" y="46" fill="#e2e8f0" font-size="20" font-family="Roboto, Arial, sans-serif" font-weight="600">
      Model Metrics
    </text>
    <text x="24" y="78" fill="#94a3b8" font-size="16" font-family="Roboto, Arial, sans-serif">
      Accuracy + F1
    </text>
    <text x="24" y="106" fill="#94a3b8" font-size="16" font-family="Roboto, Arial, sans-serif">
      A/B tests
    </text>
  </g>

  <g transform="translate(800 380)">
    <rect width="300" height="140" rx="16" fill="#1e293b" fill-opacity="0.6" stroke="#334155" />
    <text x="24" y="46" fill="#e2e8f0" font-size="20" font-family="Roboto, Arial, sans-serif" font-weight="600">
      Operational KPIs
    </text>
    <text x="24" y="78" fill="#94a3b8" font-size="16" font-family="Roboto, Arial, sans-serif">
      SLA readiness
    </text>
    <text x="24" y="106" fill="#94a3b8" font-size="16" font-family="Roboto, Arial, sans-serif">
      Decision support
    </text>
  </g>
</svg>
