<svg width="1200" height="630" viewBox="0 0 1200 630" xmlns="http://www.w3.org/2000/svg" role="img" aria-label="Neon Runner Cyber Hand cover">
  <defs>
    <linearGradient id="bg" x1="0" y1="0" x2="1" y2="1">
      <stop offset="0%" stop-color="#0b0f1f" />
      <stop offset="100%" stop-color="#1a0f2b" />
    </linearGradient>
    <linearGradient id="accent" x1="0" y1="0" x2="1" y2="0">
      <stop offset="0%" stop-color="#22d3ee" />
      <stop offset="100%" stop-color="#f472b6" />
    </linearGradient>
    <radialGradient id="glow" cx="76%" cy="18%" r="65%">
      <stop offset="0%" stop-color="#22d3ee" stop-opacity="0.3" />
      <stop offset="100%" stop-color="#22d3ee" stop-opacity="0" />
    </radialGradient>
  </defs>

  <rect width="1200" height="630" fill="url(#bg)" />
  <rect width="1200" height="630" fill="url(#glow)" />

  <g opacity="0.14" stroke="#2a3356" stroke-width="1">
    <path d="M120 150H1080" />
    <path d="M120 230H1080" />
    <path d="M120 310H1080" />
    <path d="M120 390H1080" />
    <path d="M120 470H1080" />
    <path d="M220 120V520" />
    <path d="M520 120V520" />
    <path d="M820 120V520" />
    <path d="M1080 120V520" />
  </g>

  <rect x="100" y="120" width="1000" height="410" rx="30" fill="#0f1527" fill-opacity="0.65" stroke="#2a3356" />

  <g opacity="0.95">
    <circle cx="900" cy="195" r="44" fill="#111827" stroke="#22d3ee" stroke-width="3" />
    <circle cx="980" cy="230" r="28" fill="#111827" stroke="#f472b6" stroke-width="3" />
    <circle cx="845" cy="245" r="22" fill="#111827" stroke="#38bdf8" stroke-width="3" />
    <circle cx="940" cy="280" r="18" fill="#111827" stroke="#c084fc" stroke-width="3" />
  </g>

  <g stroke="url(#accent)" stroke-width="6" fill="none" stroke-linecap="round" stroke-linejoin="round">
    <path d="M190 435 C320 330 450 350 560 300 C700 240 840 270 980 235 C1040 220 1080 220 1100 210" />
  </g>
  <g stroke="#111827" stroke-width="2" fill="none" opacity="0.55">
    <path d="M190 449 C320 344 450 364 560 314 C700 254 840 284 980 249 C1040 234 1080 234 1100 224" />
  </g>

  <text x="150" y="210" fill="#e2e8f0" font-size="56" font-family="Segoe UI, Inter, Arial, sans-serif" font-weight="700">
    Neon Runner
  </text>
  <text x="150" y="252" fill="#cbd5e1" font-size="24" font-family="Segoe UI, Inter, Arial, sans-serif">
    Cyber Hand com controle por gestos em tempo real
  </text>
  <rect x="150" y="270" width="360" height="6" rx="3" fill="url(#accent)" />
  <text x="150" y="305" fill="#94a3b8" font-size="18" font-family="Segoe UI, Inter, Arial, sans-serif">
    React • Three.js • R3F • MediaPipe • Zustand
  </text>

  <g transform="translate(150 340)">
    <rect width="320" height="130" rx="18" fill="#0f1b2d" stroke="#22304b" />
    <text x="20" y="38" fill="#e2e8f0" font-size="20" font-family="Segoe UI, Inter, Arial, sans-serif" font-weight="600">Gestos</text>
    <text x="20" y="70" fill="#9fb1c6" font-size="15" font-family="Segoe UI, Inter, Arial, sans-serif">Pular, deslizar e mover</text>
    <text x="20" y="95" fill="#9fb1c6" font-size="15" font-family="Segoe UI, Inter, Arial, sans-serif">Indicador como controle</text>
    <text x="20" y="120" fill="#9fb1c6" font-size="15" font-family="Segoe UI, Inter, Arial, sans-serif">Baixa latencia</text>
  </g>

  <g transform="translate(520 340)">
    <rect width="360" height="130" rx="18" fill="#0f1b2d" stroke="#22304b" />
    <text x="20" y="38" fill="#e2e8f0" font-size="20" font-family="Segoe UI, Inter, Arial, sans-serif" font-weight="600">Visual</text>
    <text x="20" y="70" fill="#9fb1c6" font-size="15" font-family="Segoe UI, Inter, Arial, sans-serif">Cena 3D neon</text>
    <text x="20" y="95" fill="#9fb1c6" font-size="15" font-family="Segoe UI, Inter, Arial, sans-serif">Esqueleto cibernetico</text>
    <text x="20" y="120" fill="#9fb1c6" font-size="15" font-family="Segoe UI, Inter, Arial, sans-serif">HUD responsivo</text>
  </g>
</svg>
