<svg width="1200" height="630" viewBox="0 0 1200 630" xmlns="http://www.w3.org/2000/svg" role="img" aria-label="Dino Chrome cover">
  <defs>
    <linearGradient id="bg" x1="0" y1="0" x2="1" y2="1">
      <stop offset="0%" stop-color="#07111f" />
      <stop offset="100%" stop-color="#0b1c30" />
    </linearGradient>
    <linearGradient id="accent" x1="0" y1="0" x2="1" y2="0">
      <stop offset="0%" stop-color="#10b981" />
      <stop offset="100%" stop-color="#f59e0b" />
    </linearGradient>
    <radialGradient id="glow" cx="78%" cy="18%" r="70%">
      <stop offset="0%" stop-color="#10b981" stop-opacity="0.35" />
      <stop offset="100%" stop-color="#10b981" stop-opacity="0" />
    </radialGradient>
  </defs>

  <rect width="1200" height="630" fill="url(#bg)" />
  <rect width="1200" height="630" fill="url(#glow)" />

  <g opacity="0.14" stroke="#1f2937" stroke-width="1">
    <path d="M120 140H1080" />
    <path d="M120 220H1080" />
    <path d="M120 300H1080" />
    <path d="M120 380H1080" />
    <path d="M120 460H1080" />
    <path d="M200 110V520" />
    <path d="M520 110V520" />
    <path d="M840 110V520" />
  </g>

  <rect x="100" y="120" width="1000" height="410" rx="30" fill="#0b1626" fill-opacity="0.65" stroke="#12243a" />

  <text x="150" y="210" fill="#e2e8f0" font-size="54" font-family="Segoe UI, Inter, Arial, sans-serif" font-weight="700">
    Dino Chrome
  </text>
  <text x="150" y="252" fill="#cbd5e1" font-size="24" font-family="Segoe UI, Inter, Arial, sans-serif">
    Clone do jogo do Chrome em HTML5 Canvas
  </text>
  <rect x="150" y="270" width="360" height="6" rx="3" fill="url(#accent)" />
  <text x="150" y="304" fill="#a5b4c4" font-size="18" font-family="Segoe UI, Inter, Arial, sans-serif">
    JavaScript • Canvas • HTML • CSS
  </text>

  <g transform="translate(150 330)">
    <rect width="300" height="140" rx="18" fill="#0f1f35" stroke="#1f3048" />
    <text x="20" y="38" fill="#e2e8f0" font-size="20" font-family="Segoe UI, Inter, Arial, sans-serif" font-weight="600">Gameplay</text>
    <text x="20" y="70" fill="#9fb1c6" font-size="15" font-family="Segoe UI, Inter, Arial, sans-serif">Pulo responsivo e fluido</text>
    <text x="20" y="95" fill="#9fb1c6" font-size="15" font-family="Segoe UI, Inter, Arial, sans-serif">Velocidade progressiva</text>
    <text x="20" y="120" fill="#9fb1c6" font-size="15" font-family="Segoe UI, Inter, Arial, sans-serif">Experiência clássica</text>
  </g>

  <g transform="translate(480 330)">
    <rect width="270" height="140" rx="18" fill="#0f1f35" stroke="#1f3048" />
    <text x="20" y="38" fill="#e2e8f0" font-size="20" font-family="Segoe UI, Inter, Arial, sans-serif" font-weight="600">Colisão</text>
    <text x="20" y="70" fill="#9fb1c6" font-size="15" font-family="Segoe UI, Inter, Arial, sans-serif">Obstáculos dinâmicos</text>
    <text x="20" y="95" fill="#9fb1c6" font-size="15" font-family="Segoe UI, Inter, Arial, sans-serif">Detecção consistente</text>
    <text x="20" y="120" fill="#9fb1c6" font-size="15" font-family="Segoe UI, Inter, Arial, sans-serif">Reinício rápido</text>
  </g>

  <g transform="translate(780 330)">
    <rect width="270" height="140" rx="18" fill="#0f1f35" stroke="#1f3048" />
    <text x="20" y="38" fill="#e2e8f0" font-size="20" font-family="Segoe UI, Inter, Arial, sans-serif" font-weight="600">Pontuação</text>
    <text x="20" y="70" fill="#9fb1c6" font-size="15" font-family="Segoe UI, Inter, Arial, sans-serif">Score em tempo real</text>
    <text x="20" y="95" fill="#9fb1c6" font-size="15" font-family="Segoe UI, Inter, Arial, sans-serif">Recorde e progressão</text>
    <text x="20" y="120" fill="#9fb1c6" font-size="15" font-family="Segoe UI, Inter, Arial, sans-serif">Feedback imediato</text>
  </g>

  <g stroke="url(#accent)" stroke-width="6" fill="none" stroke-linecap="round" stroke-linejoin="round" opacity="0.9">
    <path d="M190 420 C300 360 420 420 520 360 C620 300 760 350 880 300 C980 260 1060 300 1080 290" />
  </g>
  <g stroke="#111827" stroke-width="2" fill="none" opacity="0.55">
    <path d="M190 435 C300 374 420 434 520 374 C620 314 760 364 880 314 C980 274 1060 314 1080 304" />
  </g>
</svg>
